<?xml version="1.0" encoding="UTF-8"?><svg id="Layer_1" xmlns="http://www.w3.org/2000/svg" viewBox="0 0 717.26 182.29"><defs><style>.cls-1{letter-spacing:-.01em;}.cls-2{letter-spacing:0em;}.cls-3{letter-spacing:-.02em;}.cls-4{letter-spacing:0em;}.cls-5{letter-spacing:-.01em;}.cls-6{font-size:103.24px;}.cls-7{letter-spacing:-.01em;}.cls-8{letter-spacing:-.01em;}.cls-9{letter-spacing:-.01em;}.cls-9,.cls-10,.cls-11,.cls-12{font-family:Gentona-Bold, Gentona;font-weight:700;}.cls-10{letter-spacing:-.12em;}.cls-13{letter-spacing:0em;}.cls-12{letter-spacing:0em;}.cls-14{letter-spacing:0em;}.cls-15,.cls-16,.cls-17,.cls-18{font-family:Gentona-Light, Gentona;font-weight:300;}.cls-19{letter-spacing:-.02em;}.cls-20{letter-spacing:0em;}.cls-16{font-size:26.45px;}.cls-21{letter-spacing:0em;}.cls-22{letter-spacing:-.04em;}.cls-23{letter-spacing:-.01em;}.cls-17{letter-spacing:0em;}.cls-24{letter-spacing:-.02em;}.cls-25{letter-spacing:0em;}.cls-26{letter-spacing:0em;}.cls-18{letter-spacing:0em;}.cls-27{letter-spacing:0em;}</style></defs><path d="m160.98,84.54l-44.34,8.1c-.05,1.05-.16,2.11-.34,3.16-1.9,11.01-10.21,19.32-20.44,21.79v45.07c36.63-3.23,65.43-34.06,65.43-71.49,0-2.24-.09-4.44-.3-6.64Zm-143.26,6.64c0,2.24.11,4.44.3,6.64l44.34-8.13c.07-1.05.18-2.11.37-3.16.62-3.57,1.92-6.91,3.8-9.89,1.88-3,4.35-5.61,7.33-7.69,2.86-2.01,6-3.43,9.32-4.21V19.66C46.54,22.89,17.72,53.73,17.72,91.18Z"/><path d="m109.61,93.93c-.02.23-.05.48-.09.71-1.33,7.6-6.73,13.48-13.57,15.77-.02.02-.07.05-.09.05-2.17.73-4.49,1.08-6.87,1.01-.96,0-1.95-.09-2.93-.27-5.36-.94-10.03-3.89-13.14-8.31-1.63-2.29-2.75-4.85-3.3-7.53-.3-1.3-.44-2.66-.44-4.03v-.07c0-.96.07-1.9.23-2.86.02-.23.05-.46.09-.69.92-5.33,3.87-10,8.31-13.12,1.67-1.19,3.48-2.08,5.36-2.72.14-.05.27-.09.43-.14,1.88-.57,3.85-.87,5.86-.87.18,0,.39,0,.57.02.98.02,1.95.11,2.93.27,8.42,1.47,14.72,7.94,16.39,15.84.25,1.05.39,2.15.41,3.27.07,1.19.02,2.43-.16,3.66Z"/><path d="m88.98,118.35v63.94c-4.92-.02-9.91-.46-14.95-1.33C35.51,174.32,6.84,144.38,0,108.1l12.22-2.24,3.39-.62,3.37-.62,43.88-8.04c.73,3.64,2.24,7.12,4.44,10.26,4.17,5.93,10.42,9.87,17.56,11.1,1.4.25,2.77.39,4.12.41Z"/><path d="m179.16,74.22l-12.38,2.27-3.39.62-3.39.62-43.86,8.04c-2.17-10.64-10.67-19.41-22-21.36-1.37-.25-2.75-.37-4.1-.41V0c4.99,0,10.03.46,15.09,1.33,38.5,6.66,67.17,36.6,74.03,72.89Z"/><text class="cls-6" transform="translate(216.57 122.54)"><tspan class="cls-17" x="0" y="0">O</tspan><tspan class="cls-18" x="68.75" y="0">pe</tspan><tspan class="cls-15" x="178.49" y="0">n</tspan><tspan class="cls-12" x="235.48" y="0">X</tspan><tspan class="cls-9" x="302.17" y="0">N</tspan><tspan class="cls-10" x="371.75" y="0">A</tspan><tspan class="cls-11" x="431.42" y="0">V</tspan></text><text class="cls-16" transform="translate(346.98 157.34)"><tspan class="cls-24" x="0" y="0">P</tspan><tspan class="cls-14" x="14.65" y="0">ow</tspan><tspan class="cls-21" x="47.89" y="0">e</tspan><tspan class="cls-22" x="61.43" y="0">r</tspan><tspan class="cls-5" x="70.19" y="0">e</tspan><tspan class="cls-25" x="83.59" y="0">d </tspan><tspan class="cls-19" x="104.51" y="0">b</tspan><tspan class="cls-27" x="118.92" y="0">y </tspan><tspan class="cls-3" x="138.1" y="0">J</tspan><tspan class="cls-26" x="150.21" y="0">o</tspan><tspan class="cls-20" x="164.78" y="0">h</tspan><tspan class="cls-13" x="179.33" y="0">n</tspan><tspan x="193.84" y="0">s </tspan><tspan class="cls-7" x="211.54" y="0">H</tspan><tspan class="cls-23" x="229.39" y="0">o</tspan><tspan class="cls-26" x="243.69" y="0">p</tspan><tspan class="cls-8" x="258.4" y="0">k</tspan><tspan x="271.64" y="0">i</tspan><tspan class="cls-2" x="277.54" y="0">n</tspan><tspan x="292.06" y="0">s </tspan><tspan class="cls-4" x="309.75" y="0">A</tspan><tspan class="cls-1" x="326.65" y="0">P</tspan><tspan x="341.49" y="0">L</tspan></text></svg>